<svg xmlns="http://www.w3.org/2000/svg" viewBox="0 0 1163.91 639.17"><defs><style>.cls-1{fill:#c2c2c2;}.cls-2{fill:#999;}.cls-3{fill:#8a5a25;}.cls-4{opacity:0.08;}.cls-5{fill:#008cd0;}.cls-6{fill:#0075d0;}.cls-7{fill:#ffd85c;}.cls-8{fill:#ffea00;}.cls-9{fill:#bbfc1e;}.cls-10{fill:#fff;}.cls-11{fill:#bbeb1e;}.cls-12{fill:#ffcd55;}.cls-13{fill:#ff0;}.cls-14{fill:#ffb9a0;}.cls-15{fill:#0063d0;}.cls-16{opacity:0.38;}.cls-17{opacity:0.44;}.cls-18{fill:#3a3a3a;}.cls-19{fill:#8a8a8a;}.cls-20{fill:#878787;}.cls-21,.cls-28,.cls-29{fill:none;}.cls-21{stroke:#0027d0;}.cls-21,.cls-29{stroke-miterlimit:10;}.cls-22{fill:#595959;}.cls-23{fill:#6e6e6e;}.cls-24{opacity:0.41;}.cls-25{fill:#4f341d;}.cls-26{fill:#452f00;}.cls-27{fill:#9b6300;}.cls-29{stroke:#7d4018;stroke-width:0.75px;}.cls-30{fill:#ffc12e;}.cls-31{fill:#919191;}</style></defs><g id="Layer_2" data-name="Layer 2"><path class="cls-1" d="M206.78,411s35.08-51.3,403.79-48.9,537.94,28.55,550.32,46.44-143.08,49.14-143.08,49.14,203.62-4.35,269,22.09-244.89,92.49-371.47,87-432,13.76-489.78,72.92-266.22-21.32-266.22-21.32-125.88-49.53,161-85.3c0,0-143.77,4-180.23-14.53s107.31-49.45,114.88-51.17S180,453.39,206.78,411Z" transform="translate(-131.81 -22.24)"/><ellipse class="cls-2" cx="522.98" cy="516.89" rx="297.86" ry="26.8"/></g><g id="Layer_5" data-name="Layer 5"><path class="cls-3" d="M521.15,365.23S635.43,250.35,706.24,260.67,858.9,353.73,863.72,371.18,569.3,454.66,521.15,365.23Z" transform="translate(-131.81 -22.24)"/></g><g id="Layer_4" data-name="Layer 4"><g class="cls-4"><path class="cls-5" d="M786.71,94.92l4,43.34s-69.92,82-102.14,56.4l-1.67-27Z" transform="translate(-131.81 -22.24)"/><path class="cls-6" d="M660.51,161.93S698.07,105.27,701.32,91l85.39,3.93s-36.88,87.59-100.77,89.81Z" transform="translate(-131.81 -22.24)"/><path class="cls-6" d="M608.15,236.34s-4.47-1.66-1.25-9.36c0,0,14.94-43.8,25.28-55.24L657,184.35l-33,49.19s-4,5.39-7.16,3Z" transform="translate(-131.81 -22.24)"/><path class="cls-7" d="M618.65,236.7s-5.94,3-.06,7.87h1s-.68,4.89-8.28,3.24-3.53-10.91-3.53-10.91,3.49-7.16,12.16-1.17Z" transform="translate(-131.81 -22.24)"/><ellipse class="cls-8" cx="634.36" cy="124.19" rx="0.99" ry="0.69" transform="translate(-134 -10.47) rotate(-1.06)"/><path class="cls-9" d="M666.71,145.45s21-38.92,16.32-51.06c0,0,64.68,22.81,104.89,12.28a12.85,12.85,0,0,0,4.25,15s5.67,4,5.58,16.41L762.32,167l-37,26.49s-20,13.6-30.44,7.22c0,0,6.86-17.26-4.47-22.09Z" transform="translate(-131.81 -22.24)"/><path class="cls-10" d="M756.31,109.28a83.73,83.73,0,0,0,19.87-.5s-30.39,49.28-70.07,61.59c0,0-7.88-4.86-9.7-3.81C696.41,166.56,749.92,138,756.31,109.28Z" transform="translate(-131.81 -22.24)"/><path class="cls-10" d="M700.55,99.71s13.12,3.5,20.41,4.88c0,0-13.73,45.88-35.21,53.06l-9.35-6.54S702.16,130.09,700.55,99.71Z" transform="translate(-131.81 -22.24)"/><path class="cls-10" d="M789.87,144.56s6.25-15.07-7.08-19.82c0,0-6.78-3.77-1.89-8.79l-8.58.79s-4,6.44-5.38,7.09l8.43.08s-.12,5.45,4.12,5.43,10.24,7.22,2.42,21.72Z" transform="translate(-131.81 -22.24)"/><path class="cls-10" d="M683.66,100.19l15,3.92s0,8.32-2.9,10.66c0,0-10.69-5.47-13.93-4.87C681.81,109.9,683.63,102.64,683.66,100.19Z" transform="translate(-131.81 -22.24)"/><path class="cls-11" d="M785.92,114.39l-6.49,6.78a8.14,8.14,0,0,0,3.11,3.42l5.62-4.74S785.44,117.28,785.92,114.39Z" transform="translate(-131.81 -22.24)"/><path class="cls-11" d="M775.45,125l-10.29,12a1.78,1.78,0,0,0,.39,2.14c1,.85,2.59-.52,2.59-.52l9.41-9.75A5.07,5.07,0,0,1,775.45,125Z" transform="translate(-131.81 -22.24)"/><circle class="cls-7" cx="521.22" cy="159.51" r="40.93"/><circle class="cls-12" cx="515.4" cy="149.23" r="40.93"/><path class="cls-13" d="M637.09,205.7l-34.94-19.2c-4.55-2.5-2.68-7.61.38-11.8l27-42.69L684,145.44l4.27,7.6-40.09,50.23A8.61,8.61,0,0,1,637.09,205.7Z" transform="translate(-131.81 -22.24)"/><path class="cls-8" d="M638.09,206.63l-36.54-15.94a8.61,8.61,0,0,1-3.95-12.32l29-48.38L684,145.44l-35.09,57.77A8.6,8.6,0,0,1,638.09,206.63Z" transform="translate(-131.81 -22.24)"/><path class="cls-13" d="M605.4,165.37s5.76,27.28,45.43,14.62c0,0,18.81-7.84,33.15-34.55,0,0-7.56-40.16-55.64-24C609.65,127.7,602.68,147.55,605.4,165.37Z" transform="translate(-131.81 -22.24)"/><path class="cls-8" d="M629.93,128.63s-20.59,7.1-13.34,43.36c0,0,3.69,5.36,11.59,2.69,0,0-4.52-29.35,3.76-44.79C631.94,129.89,631.91,128.51,629.93,128.63Z" transform="translate(-131.81 -22.24)"/><path class="cls-8" d="M636.58,128.5s8.23,31.73,7.69,44.2c0,0,10.71.34,16.3-7.79,0,0-11-34-20.25-36.48C640.32,128.43,637.93,127.55,636.58,128.5Z" transform="translate(-131.81 -22.24)"/><path class="cls-8" d="M641.32,124.75s25,8.55,29,30.88c0,0,7.58-3.35,7.53-10.61,0,0-9-18.72-35.64-21.28C642.22,123.74,640.53,123.46,641.32,124.75Z" transform="translate(-131.81 -22.24)"/><path class="cls-8" d="M616.38,131.78s-12.19,6.73-10.15,29.85a3.66,3.66,0,0,1,.55.68S605.85,141,616.38,131.78Z" transform="translate(-131.81 -22.24)"/><path class="cls-13" d="M604.5,169.56l-6.06,9.86s-2.22,6.24,1.72,9.31l9.94,4.52s.76.61,1.26,0-.88-1.24-.88-1.24l-9.54-4.24a6.6,6.6,0,0,1-1-8.12c2.6-4.92,5.61-9.68,5.61-9.68S605.8,168.5,604.5,169.56Z" transform="translate(-131.81 -22.24)"/><ellipse class="cls-6" cx="727.09" cy="180.38" rx="13.91" ry="13.16" transform="translate(-135.02 -8.75) rotate(-1.06)"/><path class="cls-6" d="M724.82,167.26s59.49-12.06,78,31.17c0,0,1.32,13.28-12.52,8.95,0,0-36.4-25.2-64.17-13.82Z" transform="translate(-131.81 -22.24)"/><path class="cls-7" d="M803.58,188.77c-1.42,3.37-3.72,6.71-7,6s-5.13-4.54-4.24-8.5,4.25-6.6,7.48-5.87S805.15,185,803.58,188.77Z" transform="translate(-131.81 -22.24)"/><path class="cls-7" d="M792.39,186.25a16,16,0,0,0,1.73,11.4l6.8,1.54a24.11,24.11,0,0,1,2.66-10.42Z" transform="translate(-131.81 -22.24)"/><ellipse class="cls-14" cx="797.36" cy="186.78" rx="5.22" ry="3.98" transform="translate(236.79 862.28) rotate(-71.61)"/><path class="cls-7" d="M788.3,194l16.19,3.66s3.15.61,2.18,4.93l-7.51,16.82L785,214.88s-3.59-1.42-4.05-3.57-2.21-15.26.18-17.43C781.11,193.88,782.24,192.36,788.3,194Z" transform="translate(-131.81 -22.24)"/><path class="cls-15" d="M705.36,91.18S729.61,66.31,709,41.62c0,0-.19-14.37,12.87-8.5,0,0,20.49,10.33,23.67,33.2,0,0,4.15,26.22,3,29.3l-13-1.34Z" transform="translate(-131.81 -22.24)"/><path class="cls-15" d="M788.57,115S826.94,87.9,831.21,79s10-28.47,7.37-39.58c0,0-6-11.51-17.5-3.8,0,0-41.72,50.92-76.49,55.39Z" transform="translate(-131.81 -22.24)"/><ellipse cx="705.06" cy="37.19" rx="12.76" ry="9.63" transform="translate(173.07 596.63) rotate(-58.49)"/><ellipse cx="836.45" cy="32.92" rx="10.59" ry="16.63" transform="matrix(0.11, -0.99, 0.99, 0.11, 580.99, 838.6)"/></g><g class="cls-16"><path class="cls-5" d="M796.88,102.9l1.58,43.5S724.05,224.32,693.32,197l-.15-27.06Z" transform="translate(-131.81 -22.24)"/><path class="cls-6" d="M667.13,162.73s40.67-54.46,44.72-68.53l85,8.7s-41.73,85.39-105.64,84Z" transform="translate(-131.81 -22.24)"/><path class="cls-6" d="M610.68,234.1s-4.37-1.91-.72-9.42c0,0,17.37-42.9,28.33-53.73l24,14-35.66,47.27s-4.35,5.16-7.32,2.58Z" transform="translate(-131.81 -22.24)"/><path class="cls-7" d="M621.14,235s-6.1,2.68-.5,7.86l1,0s-.95,4.85-8.45,2.78-2.91-11.09-2.91-11.09,3.88-7,12.2-.49Z" transform="translate(-131.81 -22.24)"/><ellipse class="cls-8" cx="643.13" cy="123.59" rx="0.69" ry="0.99" transform="translate(363.67 739.38) rotate(-87.85)"/><path class="cls-9" d="M674.24,146.63S697.37,109,693.4,96.56c0,0,63.29,26.4,104,18.14a12.87,12.87,0,0,0,3.4,15.27s5.45,4.28,4.65,16.7l-37,26.87-38.44,24.37s-20.73,12.45-30.8,5.5c0,0,7.83-16.84-3.21-22.3Z" transform="translate(-131.81 -22.24)"/><path class="cls-10" d="M765.73,115.54a83.37,83.37,0,0,0,19.86.61s-33.1,47.5-73.4,57.57c0,0-7.61-5.29-9.48-4.35C702.71,169.37,757.74,143.85,765.73,115.54Z" transform="translate(-131.81 -22.24)"/><path class="cls-10" d="M710.59,102.86s12.9,4.23,20.1,6c0,0-16.27,45-38.12,51l-9-7.06S710.5,133.29,710.59,102.86Z" transform="translate(-131.81 -22.24)"/><path class="cls-10" d="M797.26,152.64s7.08-14.7-6-20.18c0,0-6.55-4.14-1.38-8.88l-8.62.3s-4.31,6.21-5.76,6.79l8.41.54s-.43,5.43,3.8,5.65,9.82,7.79,1.2,21.82Z" transform="translate(-131.81 -22.24)"/><path class="cls-10" d="M693.7,102.39l14.73,4.76s-.42,8.3-3.49,10.48c0,0-10.36-6.07-13.63-5.65C691.31,112,693.53,104.84,693.7,102.39Z" transform="translate(-131.81 -22.24)"/><path class="cls-11" d="M795,122.3l-6.85,6.4a8.14,8.14,0,0,0,2.9,3.6l5.88-4.42S794.36,125.16,795,122.3Z" transform="translate(-131.81 -22.24)"/><path class="cls-11" d="M784,132.33l-11,11.36a1.79,1.79,0,0,0,.26,2.16c1,.91,2.62-.37,2.62-.37l10-9.21A5,5,0,0,1,784,132.33Z" transform="translate(-131.81 -22.24)"/><circle class="cls-7" cx="526.74" cy="159.87" r="40.93"/><circle class="cls-12" cx="521.5" cy="149.27" r="40.93"/><path class="cls-13" d="M641.29,205.12,607.48,184c-4.4-2.76-2.25-7.75,1-11.77l29.31-41.11,53.65,16.47,3.84,7.83-42.84,47.9A8.6,8.6,0,0,1,641.29,205.12Z" transform="translate(-131.81 -22.24)"/><path class="cls-8" d="M642.23,206.11l-35.59-18a8.61,8.61,0,0,1-3.24-12.52l31.67-46.69,56.41,18.65L653.21,203.3A8.62,8.62,0,0,1,642.23,206.11Z" transform="translate(-131.81 -22.24)"/><path class="cls-13" d="M611.91,163.08s4.22,27.57,44.54,17.15c0,0,19.22-6.77,35-32.64,0,0-5.29-40.53-54.2-27.1C618.27,125.71,610.19,145.14,611.91,163.08Z" transform="translate(-131.81 -22.24)"/><path class="cls-8" d="M638.46,127.77s-21,6-15.75,42.55c0,0,3.38,5.56,11.42,3.33,0,0-2.86-29.55,6.26-44.5C640.39,129.15,640.45,127.77,638.46,127.77Z" transform="translate(-131.81 -22.24)"/><path class="cls-8" d="M645.1,128s6.44,32.14,5.21,44.56c0,0,10.68.94,16.7-6.87,0,0-9-34.53-18.16-37.55C648.85,128.16,646.51,127.15,645.1,128Z" transform="translate(-131.81 -22.24)"/><path class="cls-8" d="M650.05,124.54s24.49,9.94,27.24,32.46c0,0,7.75-2.93,8.1-10.18,0,0-7.92-19.19-34.38-23.24C651,123.58,649.34,123.21,650.05,124.54Z" transform="translate(-131.81 -22.24)"/><path class="cls-8" d="M624.75,130.16s-12.54,6-11.8,29.24a3.74,3.74,0,0,1,.51.7S613.72,138.77,624.75,130.16Z" transform="translate(-131.81 -22.24)"/><path class="cls-13" d="M610.78,167.21l-6.61,9.51s-2.56,6.11,1.19,9.39l9.68,5.07s.72.66,1.26,0-.81-1.3-.81-1.3l-9.29-4.76a6.6,6.6,0,0,1-.55-8.17c2.87-4.77,6.14-9.35,6.14-9.35S612.14,166.23,610.78,167.21Z" transform="translate(-131.81 -22.24)"/><ellipse class="cls-6" cx="732.57" cy="184.89" rx="13.16" ry="13.91" transform="translate(388.5 887.76) rotate(-87.85)"/><path class="cls-6" d="M731,171.66s60.06-8.71,76.15,35.5c0,0,.57,13.33-13,8.23,0,0-34.92-27.2-63.29-17.39Z" transform="translate(-131.81 -22.24)"/><path class="cls-7" d="M808.46,197.55c-1.6,3.29-4.08,6.49-7.27,5.58s-4.87-4.81-3.75-8.72,4.61-6.35,7.79-5.44S810.24,193.89,808.46,197.55Z" transform="translate(-131.81 -22.24)"/><path class="cls-7" d="M797.44,194.41a16,16,0,0,0,1.09,11.48l6.7,1.91a24.11,24.11,0,0,1,3.23-10.25Z" transform="translate(-131.81 -22.24)"/><ellipse class="cls-14" cx="802.36" cy="195.22" rx="5.22" ry="3.98" transform="translate(193.69 847.14) rotate(-68.4)"/><path class="cls-7" d="M792.91,201.91l16,4.56s3.11.79,1.9,5l-8.44,16.38-13.9-5.31s-3.51-1.61-3.85-3.79-1.35-15.36,1.16-17.39C785.75,201.4,787,199.94,792.91,201.91Z" transform="translate(-131.81 -22.24)"/><path class="cls-15" d="M715.87,94.61s25.6-23.47,6.38-49.28c0,0,.61-14.36,13.33-7.76,0,0,19.88,11.46,21.77,34.47,0,0,2.68,26.42,1.34,29.43L745.78,99.4Z" transform="translate(-131.81 -22.24)"/><path class="cls-15" d="M797.61,123.07s39.83-24.92,44.6-33.61,11.6-27.87,9.57-39.11c0,0-5.37-11.83-17.26-4.78,0,0-44.5,48.51-79.47,51Z" transform="translate(-131.81 -22.24)"/><ellipse cx="718.6" cy="40.69" rx="12.76" ry="9.63" transform="translate(144.06 585.93) rotate(-55.28)"/><ellipse cx="850.02" cy="43.79" rx="10.59" ry="16.63" transform="translate(535.41 852.84) rotate(-80.55)"/></g><g class="cls-17"><polygon class="cls-6" points="534.49 336.86 467.2 343.03 452.68 247.58 533.67 240.15 534.49 336.86"/><rect class="cls-18" x="611.78" y="362.1" width="44.16" height="11.95" transform="translate(-162.79 37.23) rotate(-5.24)"/><rect class="cls-19" x="626.92" y="373.94" width="18.11" height="29.54" transform="translate(-164.67 37.51) rotate(-5.24)"/><rect x="644.51" y="281.49" width="18.4" height="4.86" transform="matrix(1, -0.09, 0.09, 1, -155.02, 38.7)"/><rect x="645.34" y="290.63" width="17.22" height="4.86" transform="translate(-155.85 38.76) rotate(-5.24)"/><rect x="646.18" y="299.76" width="16.34" height="4.86" transform="translate(-156.69 38.83) rotate(-5.24)"/><path class="cls-20" d="M603.74,248h40.31a16.28,16.28,0,0,1,16.28,16.28v1.85a0,0,0,0,1,0,0H587.46a0,0,0,0,1,0,0v-1.85A16.28,16.28,0,0,1,603.74,248Z" transform="translate(-152.69 35.86) rotate(-5.24)"/><line class="cls-21" x1="504.77" y1="256.18" x2="508.16" y2="293.12"/><line class="cls-21" x1="500.96" y1="256.58" x2="504.35" y2="293.52"/><path class="cls-20" d="M642.56,242.64l-39.87,2.93c-1.91.18-3.8-.48-4-2.39l-.27-3c-.18-1.9,1.39-2.93,3.3-3.11l39.92-4.33Z" transform="translate(-131.81 -22.24)"/><circle class="cls-22" cx="509.59" cy="215.67" r="5.12"/><polygon class="cls-23" points="497.25 225.28 484.81 226.42 484.44 222.34 496.9 221.42 497.25 225.28"/></g><g class="cls-24"><polygon class="cls-6" points="531.16 346.51 463.79 341.38 465.38 244.84 546.48 251.02 531.16 346.51"/><rect class="cls-18" x="607.41" y="366.22" width="44.16" height="11.95" transform="translate(-101.75 -68.93) rotate(4.35)"/><rect class="cls-19" x="619.08" y="378.12" width="18.11" height="29.54" transform="translate(-100.18 -68.77) rotate(4.35)"/><rect x="653.89" y="290.09" width="18.4" height="4.86" transform="translate(-107.7 -71.71) rotate(4.35)"/><rect x="653.2" y="299.15" width="17.22" height="4.86" transform="translate(-107.01 -71.59) rotate(4.35)"/><rect x="652.5" y="308.22" width="16.34" height="4.86" transform="matrix(1, 0.08, -0.08, 1, -106.33, -71.48)"/><path class="cls-20" d="M618,252h40.31a16.28,16.28,0,0,1,16.28,16.28v1.85a0,0,0,0,1,0,0H601.73a0,0,0,0,1,0,0v-1.85A16.28,16.28,0,0,1,618,252Z" transform="translate(-110.15 -69.91) rotate(4.35)"/><line class="cls-21" x1="515.3" y1="262.01" x2="512.49" y2="299"/><line class="cls-21" x1="511.48" y1="261.76" x2="508.66" y2="298.76"/><path class="cls-20" d="M659,250l-39.8-3.75c-1.91-.15-3.68-1.11-3.53-3l.23-3c.14-1.91,1.86-2.67,3.77-2.52l40.08,2.38Z" transform="translate(-131.81 -22.24)"/><circle class="cls-22" cx="526.81" cy="222.87" r="5.12"/><polygon class="cls-23" points="513.04 230.29 500.58 229.34 500.9 225.25 513.34 226.42 513.04 230.29"/></g><g class="cls-17"><polygon class="cls-6" points="530.14 341.51 462.59 343.17 454.48 246.97 535.79 244.96 530.14 341.51"/><rect class="cls-18" x="606.9" y="364.56" width="44.16" height="11.95" transform="translate(-140.76 -6.6) rotate(-1.41)"/><rect class="cls-19" x="620.66" y="376.5" width="18.11" height="29.54" transform="translate(-141.27 -6.58) rotate(-1.41)"/><rect x="645.21" y="285.47" width="18.4" height="4.86" transform="translate(-138.71 -6) rotate(-1.41)"/><rect x="645.43" y="294.61" width="17.22" height="4.86" transform="translate(-138.94 -6.01) rotate(-1.41)"/><rect x="645.66" y="303.74" width="16.34" height="4.86" transform="translate(-139.16 -6.01) rotate(-1.41)"/><path class="cls-20" d="M606.3,250.08h40.31a16.28,16.28,0,0,1,16.28,16.28v1.85a0,0,0,0,1,0,0H590a0,0,0,0,1,0,0v-1.85a16.28,16.28,0,0,1,16.28-16.28Z" transform="translate(-138.01 -6.7) rotate(-1.41)"/><line class="cls-21" x1="505.87" y1="259.03" x2="506.79" y2="296.11"/><line class="cls-21" x1="502.05" y1="259.17" x2="502.96" y2="296.26"/><path class="cls-20" d="M646.05,246l-40,.26c-1.92,0-3.77-.74-3.81-2.65l-.08-3c0-1.92,1.59-2.84,3.5-2.89L645.8,236Z" transform="translate(-131.81 -22.24)"/><circle class="cls-22" cx="513.4" cy="218.93" r="5.12"/><polygon class="cls-23" points="500.44 227.69 487.95 228 487.85 223.9 500.35 223.82 500.44 227.69"/></g><polygon class="cls-6" points="531.29 341.32 463.72 341.32 457.98 244.94 539.32 244.94 531.29 341.32"/><rect class="cls-18" x="476.09" y="341.32" width="44.16" height="11.95"/><rect class="cls-19" x="489.34" y="353.27" width="18.11" height="29.54"/><rect x="516.43" y="262.88" width="18.4" height="4.86"/><rect x="516.43" y="272" width="17.22" height="4.86"/><rect x="516.43" y="281.13" width="16.34" height="4.86"/><path class="cls-20" d="M478.24,226.81h40.31a16.28,16.28,0,0,1,16.28,16.28v1.85a0,0,0,0,1,0,0H462a0,0,0,0,1,0,0v-1.85A16.28,16.28,0,0,1,478.24,226.81Z"/><line class="cls-21" x1="509.06" y1="258.26" x2="509.06" y2="295.36"/><line class="cls-21" x1="505.24" y1="258.31" x2="505.24" y2="295.41"/><path class="cls-20" d="M650.11,245.42l-40-.73c-1.91,0-3.74-.82-3.74-2.74v-3c0-1.91,1.66-2.8,3.57-2.8l40.15-.67Z" transform="translate(-131.81 -22.24)"/><circle class="cls-22" cx="517.58" cy="218.37" r="5.12"/><polygon class="cls-23" points="504.41 226.81 491.91 226.81 491.91 222.7 504.41 222.93 504.41 226.81"/><path d="M586.84,251.44a7.79,7.79,0,0,0-4.64,6.67l1.09.44s-.58-4.07,4-6.37Z" transform="translate(-131.81 -22.24)"/><path d="M587.22,253.12s-2.56,1.5-2.35,4h.42s-.53-1.86,2-3.71Z" transform="translate(-131.81 -22.24)"/><polygon points="447.93 259.91 450.07 271.26 451.06 271.03 448.61 259.64 447.93 259.91"/><polygon points="447.24 266.06 448.15 270.07 448.92 269.88 447.73 265.83 447.24 266.06"/><path class="cls-5" d="M789,98.32l3.21,43.42S720.75,222.39,689,196.24l-1.16-27Z" transform="translate(-131.81 -22.24)"/><path class="cls-6" d="M661.55,163s38.6-55.95,42.12-70.17l85.3,5.5s-38.5,86.9-102.41,87.94Z" transform="translate(-131.81 -22.24)"/><path class="cls-6" d="M607.83,236.42s-4.44-1.74-1.08-9.38c0,0,15.75-43.52,26.29-54.76l24.54,13.06-33.86,48.58s-4.15,5.31-7.21,2.84Z" transform="translate(-131.81 -22.24)"/><path class="cls-7" d="M618.31,237s-6,2.91-.2,7.87l1,0s-.77,4.87-8.34,3.09-3.32-11-3.32-11,3.61-7.1,12.17-.94Z" transform="translate(-131.81 -22.24)"/><ellipse class="cls-8" cx="504.29" cy="102.53" rx="0.99" ry="0.69"/><path class="cls-9" d="M668.06,146.63s21.7-38.52,17.26-50.75c0,0,64.24,24,104.64,14.22a12.86,12.86,0,0,0,4,15.13s5.6,4.07,5.27,16.51l-36,28.24-37.49,25.8S705.5,209,695.18,202.43c0,0,7.19-17.12-4-22.17Z" transform="translate(-131.81 -22.24)"/><path class="cls-10" d="M758.32,112.12a83,83,0,0,0,19.87-.13s-31.3,48.71-71.2,60.29c0,0-7.79-5-9.63-4C697.36,168.28,751.4,140.71,758.32,112.12Z" transform="translate(-131.81 -22.24)"/><path class="cls-10" d="M702.74,101.52s13,3.74,20.31,5.26c0,0-14.57,45.62-36.18,52.4l-9.23-6.71S703.79,131.93,702.74,101.52Z" transform="translate(-131.81 -22.24)"/><path class="cls-10" d="M791.21,148s6.53-15-6.71-19.94c0,0-6.71-3.9-1.72-8.83l-8.6.63s-4.07,6.36-5.5,7l8.42.23s-.23,5.45,4,5.51,10.11,7.41,2,21.76Z" transform="translate(-131.81 -22.24)"/><path class="cls-10" d="M685.85,101.69l14.9,4.2s-.12,8.31-3.1,10.61c0,0-10.59-5.68-13.83-5.13C683.82,111.37,685.77,104.14,685.85,101.69Z" transform="translate(-131.81 -22.24)"/><path class="cls-11" d="M787.82,117.78l-6.61,6.66a8.19,8.19,0,0,0,3,3.48l5.71-4.64S787.29,120.66,787.82,117.78Z" transform="translate(-131.81 -22.24)"/><path class="cls-11" d="M777.16,128.21,766.65,140a1.78,1.78,0,0,0,.34,2.15c1,.87,2.6-.47,2.6-.47l9.6-9.57A5.09,5.09,0,0,1,777.16,128.21Z" transform="translate(-131.81 -22.24)"/><circle class="cls-7" cx="521.9" cy="160.43" r="40.93"/><circle class="cls-12" cx="516.27" cy="150.04" r="40.93"/><path class="cls-13" d="M637.33,206.32l-34.58-19.84c-4.51-2.59-2.54-7.66.6-11.8l27.74-42.18,54.23,14.44,4.13,7.68-41,49.48A8.62,8.62,0,0,1,637.33,206.32Z" transform="translate(-131.81 -22.24)"/><path class="cls-8" d="M638.31,207.27l-36.24-16.61a8.63,8.63,0,0,1-3.72-12.4l29.9-47.83,57.07,16.51-36.15,57.11A8.6,8.6,0,0,1,638.31,207.27Z" transform="translate(-131.81 -22.24)"/><path class="cls-13" d="M606.39,165.41s5.25,27.39,45.15,15.46c0,0,19-7.49,33.78-33.93,0,0-6.81-40.3-55.18-25C611.34,127.83,604,147.55,606.39,165.41Z" transform="translate(-131.81 -22.24)"/><path class="cls-8" d="M631.59,129.13s-20.71,6.72-14.14,43.11c0,0,3.59,5.42,11.54,2.9,0,0-4-29.43,4.59-44.71C633.58,130.43,633.58,129.05,631.59,129.13Z" transform="translate(-131.81 -22.24)"/><path class="cls-8" d="M638.24,129.12s7.65,31.88,6.88,44.34c0,0,10.7.53,16.43-7.49,0,0-10.31-34.17-19.56-36.85C642,129.12,639.62,128.2,638.24,129.12Z" transform="translate(-131.81 -22.24)"/><path class="cls-8" d="M643.06,125.46s24.84,9,28.43,31.41c0,0,7.64-3.21,7.72-10.47,0,0-8.64-18.88-35.24-21.94C644,124.46,642.29,124.16,643.06,125.46Z" transform="translate(-131.81 -22.24)"/><path class="cls-8" d="M618,132s-12.31,6.5-10.7,29.66a3.32,3.32,0,0,1,.53.69S607.29,141.05,618,132Z" transform="translate(-131.81 -22.24)"/><path class="cls-13" d="M605.41,169.58l-6.24,9.74s-2.33,6.21,1.54,9.35l9.86,4.7s.75.63,1.26,0-.86-1.26-.86-1.26l-9.45-4.42a6.59,6.59,0,0,1-.86-8.14c2.69-4.87,5.78-9.57,5.78-9.57S606.73,168.55,605.41,169.58Z" transform="translate(-131.81 -22.24)"/><ellipse class="cls-6" cx="595.98" cy="160.43" rx="13.91" ry="13.16"/><path class="cls-6" d="M725.76,169.51s59.69-11,77.42,32.61c0,0,1.07,13.3-12.68,8.71,0,0-35.93-25.86-63.9-15Z" transform="translate(-131.81 -22.24)"/><path class="cls-7" d="M804.1,192.48c-1.48,3.34-3.84,6.64-7.06,5.85s-5-4.64-4.07-8.59,4.36-6.51,7.58-5.72S805.74,188.75,804.1,192.48Z" transform="translate(-131.81 -22.24)"/><path class="cls-7" d="M793,189.74a16,16,0,0,0,1.51,11.44l6.77,1.66a24,24,0,0,1,2.85-10.36Z" transform="translate(-131.81 -22.24)"/><ellipse class="cls-14" cx="797.92" cy="190.37" rx="5.22" ry="3.98" transform="translate(220.94 857.14) rotate(-70.55)"/><path class="cls-7" d="M788.72,197.42l16.13,4s3.14.67,2.09,5L799.12,223,785,218.24s-3.57-1.48-4-3.65-1.93-15.29.5-17.42C781.54,197.17,782.7,195.67,788.72,197.42Z" transform="translate(-131.81 -22.24)"/><path class="cls-15" d="M707.7,93.08s24.71-24.41,4.53-49.48c0,0,.08-14.37,13-8.26,0,0,20.29,10.7,23,33.63,0,0,3.66,26.3,2.44,29.35l-13-1.58Z" transform="translate(-131.81 -22.24)"/><path class="cls-15" d="M790.46,118.45s38.86-26.39,43.3-35.26,10.55-28.28,8.1-39.44c0,0-5.81-11.62-17.43-4.13,0,0-42.65,50.14-77.5,54Z" transform="translate(-131.81 -22.24)"/><ellipse cx="708.41" cy="39.1" rx="12.76" ry="9.63" transform="translate(162.31 592.83) rotate(-57.43)"/><ellipse cx="839.86" cy="37.26" rx="10.59" ry="16.63" transform="translate(564.35 843.33) rotate(-82.7)"/><path d="M703.13,66.45s2.37,7.21-1.83,11.33l1.25.6s4-6.65,1.25-11.93Z" transform="translate(-131.81 -22.24)"/><path d="M700.35,69.13s.57,3.44-.81,4.28l.81.55s1.56-3.46.95-4.83Z" transform="translate(-131.81 -22.24)"/><path d="M605.49,125.46s-14.87,12.23-8.14,32.94l-1.75,1s-7.5-20.85,8.86-35Z" transform="translate(-131.81 -22.24)"/><path d="M603,135.18s-5.29,5.51-2.85,14.62l.84-.28s-2-8.43,2.38-14Z" transform="translate(-131.81 -22.24)"/></g><g id="Layer_3" data-name="Layer 3"><path class="cls-25" d="M666.55,470.48s-14-15.29-47-23.47-37.15-44.25-37.15-44.25-16.51-32.72-31-40.63,1.38-54.09-33.7-69.52-20.32-36.07-20.32-36.07-13.39-55-56-53-57.1-20.63-65.35,10.32-26.83,20.26-37.15,56.56-45.4,49.23-45.4,74.07-40.58,48.76-44,87.36-79.8,46.85-81.86,57.17S388.89,573.66,666.55,470.48Z" transform="translate(-131.81 -22.24)"/><path class="cls-26" d="M513.58,495.62c16.41.29,37.21-61.94,116.88-80.71,39.76-9.37,88.08-27,93.66-29s8-58.7,44-68.91,33.37-28.78,33.37-28.78,10.73-28.2,24.8-56.4,53.27-37.15,71.16-25.46,37.14,24.77,52.28,21.33,32.33,36.84,31.64,43.87,17.89,26.07,22,49.57,10.32,108.65,20.64,115.6,24.08,44.87,47.46,49.3-41.55,50.91-564.35,23.24Z" transform="translate(-131.81 -22.24)"/><ellipse class="cls-25" cx="584.78" cy="449.11" rx="10.89" ry="5.31" transform="translate(-265.5 261.13) rotate(-24.53)"/><ellipse class="cls-26" cx="464.17" cy="221.87" rx="5.31" ry="10.89" transform="translate(-104.38 471.54) rotate(-57.45)"/><ellipse class="cls-26" cx="362.15" cy="246.32" rx="6.13" ry="3.35" transform="translate(-199.91 305.99) rotate(-45)"/><ellipse class="cls-26" cx="354.7" cy="260.08" rx="6.13" ry="3.35" transform="translate(-211.82 304.75) rotate(-45)"/><ellipse class="cls-26" cx="311.44" cy="321.53" rx="6.13" ry="3.35" transform="translate(-267.3 274.26) rotate(-42.71)"/><ellipse class="cls-26" cx="394.9" cy="362.13" rx="8.83" ry="5.93" transform="translate(-272.71 341.64) rotate(-42.71)"/><ellipse class="cls-26" cx="415.08" cy="361.02" rx="6.13" ry="3.35" transform="translate(-266.6 355.03) rotate(-42.71)"/><ellipse class="cls-26" cx="413.59" cy="348.21" rx="4.46" ry="2.96" transform="translate(-258.31 350.62) rotate(-42.71)"/><ellipse class="cls-26" cx="304.4" cy="335.9" rx="6.13" ry="3.35" transform="translate(-278.92 273.3) rotate(-42.71)"/><ellipse class="cls-26" cx="264.04" cy="409.73" rx="7.72" ry="4.78" transform="translate(-348.53 307.12) rotate(-47.71)"/><ellipse class="cls-26" cx="277.25" cy="408.23" rx="2.67" ry="4.11" transform="translate(-306.34 187.47) rotate(-32.1)"/><ellipse class="cls-26" cx="275.1" cy="394.12" rx="4.24" ry="3.22" transform="translate(-326.17 268.86) rotate(-42.71)"/><ellipse class="cls-26" cx="206.54" cy="478.27" rx="4.24" ry="3.22" transform="translate(-201.44 14.3) rotate(-8.66)"/><ellipse class="cls-26" cx="320.05" cy="507.62" rx="4.24" ry="3.22" transform="translate(-204.57 31.72) rotate(-8.66)"/><ellipse class="cls-26" cx="337.69" cy="508.32" rx="3.22" ry="5.77" transform="translate(-400.78 552.32) rotate(-62.63)"/><ellipse class="cls-26" cx="348.89" cy="504.87" rx="2.43" ry="4.55" transform="translate(-391.66 560.4) rotate(-62.63)"/><ellipse class="cls-26" cx="351.89" cy="513.99" rx="1.84" ry="2.9" transform="translate(-392.18 377.13) rotate(-45)"/><ellipse class="cls-26" cx="323.58" cy="494.55" rx="2.9" ry="1.84" transform="translate(-350.7 237.77) rotate(-33.42)"/><ellipse class="cls-26" cx="192.2" cy="481.38" rx="4.24" ry="1.61" transform="translate(-202.07 12.18) rotate(-8.66)"/><ellipse class="cls-26" cx="185.24" cy="487.88" rx="4.24" ry="1.61" transform="translate(-203.13 11.2) rotate(-8.66)"/><ellipse class="cls-26" cx="205.87" cy="485.37" rx="7.23" ry="1.93" transform="translate(-202.52 14.28) rotate(-8.66)"/><ellipse class="cls-26" cx="365.1" cy="259.07" rx="2.7" ry="2.04" transform="translate(-208.06 311.81) rotate(-45)"/><ellipse class="cls-26" cx="467.9" cy="242.27" rx="4.35" ry="7.07" transform="translate(-150.1 423.09) rotate(-50.04)"/><circle class="cls-26" cx="344.83" cy="212.82" r="2.92"/><circle class="cls-26" cx="351.68" cy="218.56" r="2.92"/><ellipse class="cls-25" cx="858.56" cy="216.15" rx="10.89" ry="5.31" transform="translate(-144.04 353.79) rotate(-24.53)"/><ellipse class="cls-25" cx="883.61" cy="219.15" rx="3.88" ry="6.15" transform="translate(120.2 852.56) rotate(-60)"/><ellipse class="cls-25" cx="883.61" cy="231.08" rx="3.88" ry="6.15" transform="translate(109.88 858.52) rotate(-60)"/><ellipse class="cls-25" cx="839.57" cy="230.37" rx="4.84" ry="3.53" transform="translate(11.33 730.55) rotate(-52.22)"/><ellipse class="cls-25" cx="556.99" cy="472.7" rx="7.04" ry="4.27" transform="translate(-277.8 251.73) rotate(-24.53)"/><ellipse class="cls-25" cx="588.01" cy="469.94" rx="7.04" ry="4.27" transform="translate(-273.86 264.36) rotate(-24.53)"/><ellipse class="cls-25" cx="716.05" cy="407.62" rx="7.04" ry="4.27" transform="translate(-236.42 311.9) rotate(-24.53)"/><ellipse class="cls-25" cx="721.76" cy="419.8" rx="5.07" ry="3.23" transform="translate(-240.96 315.37) rotate(-24.53)"/><ellipse class="cls-25" cx="692.87" cy="419.6" rx="5.07" ry="3.23" transform="translate(-243.48 303.36) rotate(-24.53)"/><ellipse class="cls-25" cx="678.58" cy="416.71" rx="5.07" ry="3.23" transform="translate(-243.57 297.16) rotate(-24.53)"/><ellipse class="cls-25" cx="740.36" cy="406.55" rx="7.04" ry="4.27" transform="translate(-233.78 321.9) rotate(-24.53)"/><ellipse class="cls-25" cx="758.9" cy="419.6" rx="5.84" ry="9.09" transform="translate(-142.33 797.35) rotate(-56.41)"/><ellipse class="cls-25" cx="960.99" cy="303.21" rx="5.84" ry="9.09" transform="translate(44.9 913.69) rotate(-56.41)"/><ellipse class="cls-25" cx="927.06" cy="296.21" rx="5.84" ry="9.09" transform="translate(35.57 882.29) rotate(-56.41)"/><ellipse class="cls-25" cx="958.63" cy="286.4" rx="3.71" ry="6.11" transform="translate(216.3 1056.8) rotate(-69.03)"/><ellipse class="cls-25" cx="783.68" cy="416.71" rx="4.24" ry="6.53" transform="translate(-128.85 816.69) rotate(-56.41)"/></g><g id="Layer_1" data-name="Layer 1"><polygon class="cls-27" points="381.77 523.37 339.81 523.37 359.68 261.97 381.77 261.97 381.77 523.37"/><polygon class="cls-27" points="653.91 523.37 695.87 523.37 676 261.97 653.91 261.97 653.91 523.37"/><polygon class="cls-28" points="628.12 366.53 592.31 407.81 627 407.81 662.8 366.53 628.12 366.53"/><polygon class="cls-28" points="563.38 366.53 527.58 407.81 562.26 407.81 598.07 366.53 563.38 366.53"/><polygon class="cls-28" points="433.92 366.53 398.11 407.81 432.8 407.81 468.6 366.53 433.92 366.53"/><polygon class="cls-28" points="359.68 366.53 359.68 407.81 368.06 407.81 403.87 366.53 359.68 366.53"/><polygon class="cls-28" points="657.05 407.81 676.73 407.81 676.73 385.11 657.05 407.81"/><polygon class="cls-28" points="498.65 366.53 462.85 407.81 497.53 407.81 533.33 366.53 498.65 366.53"/><path class="cls-29" d="M477.35,527.61a6.3,6.3,0,0,1,0,4.47c-.92,2.41-.57,3.9,0,4.59s-.56,2.87-.57,4.81" transform="translate(-131.81 -22.24)"/><path class="cls-29" d="M512.55,541.1a17.17,17.17,0,0,0,.19,3.25" transform="translate(-131.81 -22.24)"/><path class="cls-29" d="M512.28,530.71s.46,6.84,0,8.06" transform="translate(-131.81 -22.24)"/><path class="cls-29" d="M507.12,542.44c0,.46-.15,1.87.73,2.25" transform="translate(-131.81 -22.24)"/><path class="cls-29" d="M509.53,543.57c.34.7.65,1.47.84,1.47" transform="translate(-131.81 -22.24)"/><line class="cls-29" x1="373.71" y1="521.65" x2="373.86" y2="522.46"/><line class="cls-29" x1="371.99" y1="522.11" x2="371.99" y2="522.61"/><line class="cls-29" x1="379.71" y1="521.65" x2="379.94" y2="522.8"/><line class="cls-29" x1="341.3" y1="518.67" x2="340.84" y2="522.95"/><line class="cls-29" x1="342.41" y1="522.05" x2="342.41" y2="522.95"/><line class="cls-29" x1="344.17" y1="522.36" x2="344.17" y2="522.95"/><path class="cls-29" d="M489.85,545.19s.8-.76.42-3.25a27.37,27.37,0,0,1,.1-6.15" transform="translate(-131.81 -22.24)"/><path class="cls-29" d="M491.38,545.19s1.07-.69.76-3.44" transform="translate(-131.81 -22.24)"/><line class="cls-29" x1="361.67" y1="522.95" x2="361.67" y2="521.84"/><path class="cls-29" d="M486.75,447.47a39,39,0,0,1,0,18.46c-2.52,9.52.56,22.93.56,22.93" transform="translate(-131.81 -22.24)"/><path class="cls-29" d="M509.11,434.86s3,3.67,0,18.46,0,21.55,0,21.55,1.37,6.31,0,7.34" transform="translate(-131.81 -22.24)"/><path class="cls-29" d="M502.69,432.45s2.41,5.73.69,9.17,0,7.46,0,7.46" transform="translate(-131.81 -22.24)"/><path class="cls-29" d="M493.86,379.83s3.1,10.2.8,14,.46,11.66.46,11.66" transform="translate(-131.81 -22.24)"/><path class="cls-29" d="M507.16,351.17s2.87,9.63,1.38,13.18-1.64,11.58-.48,12.5" transform="translate(-131.81 -22.24)"/><path class="cls-29" d="M489,338.44s1,13.3,0,17.66-2.75,7.79-1,11.58-.73,7.68-.73,7.68" transform="translate(-131.81 -22.24)"/><path class="cls-29" d="M491.48,360.8s-1.68,1.72,0,6.53-2,12.61-3.58,16.28" transform="translate(-131.81 -22.24)"/><line class="cls-29" x1="362.63" y1="264.26" x2="360.79" y2="270.46"/><line class="cls-29" x1="360.79" y1="262.89" x2="360.79" y2="265.3"/><line class="cls-29" x1="379.94" y1="262.89" x2="380.74" y2="270.46"/><line class="cls-29" x1="378.22" y1="263.46" x2="378.22" y2="265.75"/><line class="cls-29" x1="376.25" y1="263.46" x2="376.25" y2="264.61"/><path class="cls-29" d="M793,373s-2.41,2.6,0,9.63,4,7.18,1.62,10.7-3.57,14.83-2.69,16.13" transform="translate(-131.81 -22.24)"/><path class="cls-29" d="M811.59,397s4.74,15.13,4.59,24.3-2.44,24.77,0,30.27" transform="translate(-131.81 -22.24)"/><path class="cls-29" d="M809.61,436.39s-2.45,15.29,4.28,23.54,0,20,0,20" transform="translate(-131.81 -22.24)"/><path class="cls-29" d="M788.85,453.36s1.49,13.6,1.49,14.37v.76" transform="translate(-131.81 -22.24)"/><line class="cls-29" x1="656.4" y1="443.04" x2="657.79" y2="456.95"/><line class="cls-29" x1="655.79" y1="506.33" x2="656.4" y2="522.38"/><line class="cls-29" x1="658.54" y1="516.72" x2="659.15" y2="521.46"/><line class="cls-29" x1="660.68" y1="520.09" x2="660.68" y2="521.46"/><line class="cls-29" x1="663.28" y1="520.77" x2="663.28" y2="522.38"/><path class="cls-29" d="M805.78,544.62s-3.51-5.2,0-7,0-9.94,0-9.94" transform="translate(-131.81 -22.24)"/><path class="cls-29" d="M807.35,544.62s-2.49-3.67-.65-4.59" transform="translate(-131.81 -22.24)"/><path class="cls-29" d="M826.27,544.62s-1.68,0-2-8.49,2.9-6.49,0-13.22" transform="translate(-131.81 -22.24)"/><path class="cls-29" d="M824.26,544.62s-2.73-6-1.51-10.86" transform="translate(-131.81 -22.24)"/><path class="cls-29" d="M801.5,485s-.52,4,2.72,13.45,0,18.65,0,18.65" transform="translate(-131.81 -22.24)"/><path class="cls-29" d="M805.66,495.09a14.3,14.3,0,0,1,3.51,12.38" transform="translate(-131.81 -22.24)"/><path class="cls-29" d="M805.94,351.85a29.73,29.73,0,0,1,4,13.91c.31,8.26-3.66,10.7-1.37,14.37" transform="translate(-131.81 -22.24)"/><path class="cls-29" d="M805.32,360.57s3.06,0,1.38,6.57" transform="translate(-131.81 -22.24)"/><path class="cls-29" d="M787.29,286.73s-.31,12.69,1.07,18.65" transform="translate(-131.81 -22.24)"/><path class="cls-29" d="M789.58,286.73s.46,4.28,0,5.2" transform="translate(-131.81 -22.24)"/><line class="cls-29" x1="662.8" y1="264.49" x2="663.99" y2="266.18"/><path class="cls-29" d="M805.32,286s2.6,11.31,1.38,18.49" transform="translate(-131.81 -22.24)"/><path class="cls-29" d="M803.14,286.73s1.42,4.13,2.18,6.27" transform="translate(-131.81 -22.24)"/><path class="cls-29" d="M790.47,353.55s-1.86,5.64,0,10.3.89,6.65,0,8.49" transform="translate(-131.81 -22.24)"/><path class="cls-29" d="M793.71,356.44s-1.46,4.13-.73,5.66" transform="translate(-131.81 -22.24)"/><rect class="cls-30" x="359.68" y="279.17" width="317.06" height="56.87"/><polygon points="414.91 279.17 365.58 336.04 395.64 336.04 444.96 279.17 414.91 279.17"/><polygon points="359.68 279.17 359.68 304.53 381.68 279.17 359.68 279.17"/><polygon points="479.64 279.17 430.32 336.04 460.37 336.04 509.7 279.17 479.64 279.17"/><polygon points="544.38 279.17 495.05 336.04 525.1 336.04 574.43 279.17 544.38 279.17"/><polygon points="609.11 279.17 559.78 336.04 589.84 336.04 639.16 279.17 609.11 279.17"/><polygon points="676.73 279.17 673.85 279.17 624.52 336.04 654.57 336.04 676.73 310.48 676.73 279.17"/><circle class="cls-31" cx="368.93" cy="291.44" r="4.01"/><circle class="cls-31" cx="368.93" cy="324.34" r="4.01"/><circle class="cls-31" cx="665.19" cy="291.44" r="4.01"/><circle class="cls-31" cx="665.19" cy="324.34" r="4.01"/><rect class="cls-30" x="359.68" y="366.53" width="317.06" height="41.27"/><polygon points="403.87 366.53 368.06 407.81 398.11 407.81 433.92 366.53 403.87 366.53"/><polygon points="468.6 366.53 432.8 407.81 462.85 407.81 498.65 366.53 468.6 366.53"/><polygon points="533.33 366.53 497.53 407.81 527.58 407.81 563.38 366.53 533.33 366.53"/><polygon points="598.07 366.53 562.26 407.81 592.31 407.81 628.12 366.53 598.07 366.53"/><polygon points="676.73 366.53 662.8 366.53 627 407.81 657.05 407.81 676.73 385.11 676.73 366.53"/><circle class="cls-31" cx="368.93" cy="378.34" r="4.01"/><circle class="cls-31" cx="368.93" cy="397.83" r="4.01"/><circle class="cls-31" cx="667.32" cy="377.42" r="4.01"/><circle class="cls-31" cx="667.32" cy="396.91" r="4.01"/></g></svg>