<svg id="logo" xmlns="http://www.w3.org/2000/svg" xmlns:xlink="http://www.w3.org/1999/xlink" viewBox="0 0 77.13 47.89"><defs><style>.cls-1,.cls-7{fill:none;}.cls-2{fill:#2e80ff;}.cls-3{fill:url(#linear-gradient);}.cls-4{fill:url(#linear-gradient-2);}.cls-5{fill:url(#linear-gradient-3);}.cls-6{clip-path:url(#clip-path);}.cls-7{stroke:#fff;stroke-miterlimit:10;stroke-width:0.75px;}.cls-8{clip-path:url(#clip-path-2);}</style><linearGradient id="linear-gradient" x1="711.38" y1="365.07" x2="721.67" y2="375.36" gradientUnits="userSpaceOnUse"><stop offset="0" stop-color="#fff" stop-opacity="0"/><stop offset="0.12" stop-color="#c7b2da" stop-opacity="0.18"/><stop offset="0.26" stop-color="#9269b7" stop-opacity="0.36"/><stop offset="0.39" stop-color="#713da2" stop-opacity="0.46"/><stop offset="0.49" stop-color="#662d9a" stop-opacity="0.5"/><stop offset="0.59" stop-color="#792da7" stop-opacity="0.58"/><stop offset="0.79" stop-color="#aa2ec8" stop-opacity="0.78"/><stop offset="1" stop-color="#e12eee"/></linearGradient><linearGradient id="linear-gradient-2" x1="15.33" y1="34.75" x2="25.65" y2="45.07" xlink:href="#linear-gradient"/><linearGradient id="linear-gradient-3" x1="687.52" y1="378.47" x2="714.76" y2="405.72" xlink:href="#linear-gradient"/><clipPath id="clip-path" transform="translate(-644.39 -360.05)"><polygon id="SVGID" class="cls-1" points="675.9 360.66 663.75 384.32 651.6 360.66 644.39 360.66 660.48 390.39 660.48 394.03 666.96 390.41 683.08 360.66 675.9 360.66"/></clipPath><clipPath id="clip-path-2" transform="translate(-644.39 -360.05)"><path id="SVGID-2" data-name="SVGID" class="cls-1" d="M696,369.18a10,10,0,0,1,8.37-4.19,12.92,12.92,0,0,1,5.84,1.22l5.41-3a19.07,19.07,0,0,0-11.27-3.13,16.45,16.45,0,0,0-12.89,5.58q-4.86,5.44-5,13.84l6.72-3.76A15.46,15.46,0,0,1,696,369.18Z"/></clipPath></defs><path class="cls-1" d="M696,369.18a15.46,15.46,0,0,0-2.79,6.53l17-9.5a12.92,12.92,0,0,0-5.84-1.22A10,10,0,0,0,696,369.18Z" transform="translate(-644.39 -360.05)"/><polygon class="cls-2" points="16.09 47.15 22.35 47.15 22.35 30.77 22.57 30.36 16.09 33.98 16.09 47.15"/><polygon points="31.51 0.6 19.36 24.27 7.21 0.6 0 0.6 16.09 30.34 16.09 33.98 22.57 30.36 38.69 0.6 31.51 0.6"/><path class="cls-2" d="M712.51,367.8a10.33,10.33,0,0,1,2.9,7.78h6l.07-.18q.13-7-4.53-11.17a13.33,13.33,0,0,0-1.33-1.05l-5.41,3A9,9,0,0,1,712.51,367.8Z" transform="translate(-644.39 -360.05)"/><path class="cls-3" d="M712.51,367.8a10.33,10.33,0,0,1,2.9,7.78h6l.07-.18q.13-7-4.53-11.17a13.33,13.33,0,0,0-1.33-1.05l-5.41,3A9,9,0,0,1,712.51,367.8Z" transform="translate(-644.39 -360.05)"/><path d="M696,369.18a10,10,0,0,1,8.37-4.19,12.92,12.92,0,0,1,5.84,1.22l5.41-3a19.07,19.07,0,0,0-11.27-3.13,16.45,16.45,0,0,0-12.89,5.58q-4.86,5.44-5,13.84l6.72-3.76A15.46,15.46,0,0,1,696,369.18Z" transform="translate(-644.39 -360.05)"/><path class="cls-2" d="M693.25,375.71l-6.72,3.76c0,.13,0,.27,0,.41v8.28q0,8.67,5,14.23A16.39,16.39,0,0,0,704.29,408q7.82,0,12.57-4.36a13.82,13.82,0,0,0,4.62-11l-.07-.18h-6q0,5.06-2.88,7.84t-8.1,2.79a10,10,0,0,1-8.39-4.18,17.23,17.23,0,0,1-3.16-10.67v-8.35A22.24,22.24,0,0,1,693.25,375.71Z" transform="translate(-644.39 -360.05)"/><polygon class="cls-4" points="16.09 47.15 22.35 47.15 22.35 30.77 22.57 30.36 16.09 33.98 16.09 47.15"/><path class="cls-5" d="M693.25,375.71l-6.72,3.76c0,.13,0,.27,0,.41v8.28q0,8.67,5,14.23A16.39,16.39,0,0,0,704.29,408q7.82,0,12.57-4.36a13.82,13.82,0,0,0,4.62-11l-.07-.18h-6q0,5.06-2.88,7.84t-8.1,2.79a10,10,0,0,1-8.39-4.18,17.23,17.23,0,0,1-3.16-10.67v-8.35A22.24,22.24,0,0,1,693.25,375.71Z" transform="translate(-644.39 -360.05)"/><g class="cls-6"><line class="cls-7" x1="15.15" y1="33.45" x2="20.93" y2="30.15"/></g><g class="cls-8"><line class="cls-7" x1="67.52" y1="3.51" x2="71.17" y2="1.42"/><line class="cls-7" x1="43.92" y1="17.01" x2="65.64" y2="4.58"/></g></svg>