<svg id="logo-desktop" xmlns="http://www.w3.org/2000/svg" xmlns:xlink="http://www.w3.org/1999/xlink" viewBox="0 0 289.46 68.21"><defs><style>.cls-1,.cls-7{fill:none;}.cls-2{fill:#2e80ff;}.cls-3{fill:url(#linear-gradient);}.cls-4{fill:url(#linear-gradient-2);}.cls-5{fill:url(#linear-gradient-3);}.cls-6{clip-path:url(#clip-path);}.cls-7{stroke:#fff;stroke-miterlimit:10;stroke-width:0.75px;}.cls-8{clip-path:url(#clip-path-2);}.cls-9{font-size:47.87px;font-family:AgencyFB-Reg, Agency FB;}.cls-10,.cls-11{fill:#fff;}.cls-10{font-family:Poppins-Thin, Poppins;font-weight:200;}.cls-11{font-size:35.36px;font-family:Poppins-Light, Poppins;font-weight:300;}</style><linearGradient id="linear-gradient" x1="594.78" y1="355.63" x2="605.07" y2="365.92" gradientUnits="userSpaceOnUse"><stop offset="0" stop-color="#fff" stop-opacity="0"/><stop offset="0.12" stop-color="#c7b2da" stop-opacity="0.18"/><stop offset="0.26" stop-color="#9269b7" stop-opacity="0.36"/><stop offset="0.39" stop-color="#713da2" stop-opacity="0.46"/><stop offset="0.49" stop-color="#662d9a" stop-opacity="0.5"/><stop offset="0.59" stop-color="#792da7" stop-opacity="0.58"/><stop offset="0.79" stop-color="#aa2ec8" stop-opacity="0.78"/><stop offset="1" stop-color="#e12eee"/></linearGradient><linearGradient id="linear-gradient-2" x1="15.33" y1="36.71" x2="25.65" y2="47.03" xlink:href="#linear-gradient"/><linearGradient id="linear-gradient-3" x1="570.92" y1="369.03" x2="598.16" y2="396.28" xlink:href="#linear-gradient"/><clipPath id="clip-path" transform="translate(-527.79 -348.65)"><polygon id="SVGID" class="cls-1" points="559.3 351.22 547.15 374.88 535 351.22 527.79 351.22 543.88 380.95 543.88 384.59 550.36 380.97 566.48 351.22 559.3 351.22"/></clipPath><clipPath id="clip-path-2" transform="translate(-527.79 -348.65)"><path id="SVGID-2" data-name="SVGID" class="cls-1" d="M579.45,359.74a10,10,0,0,1,8.36-4.19,12.92,12.92,0,0,1,5.84,1.22l5.41-3a19.07,19.07,0,0,0-11.27-3.13,16.45,16.45,0,0,0-12.89,5.58q-4.86,5.44-5,13.84l6.72-3.76A15.35,15.35,0,0,1,579.45,359.74Z"/></clipPath></defs><path class="cls-1" d="M579.45,359.74a15.35,15.35,0,0,0-2.8,6.53l17-9.5a12.92,12.92,0,0,0-5.84-1.22A10,10,0,0,0,579.45,359.74Z" transform="translate(-527.79 -348.65)"/><polygon class="cls-2" points="16.09 49.11 22.35 49.11 22.35 32.73 22.57 32.32 16.09 35.94 16.09 49.11"/><polygon points="31.51 2.56 19.36 26.23 7.21 2.56 0 2.56 16.09 32.3 16.09 35.94 22.57 32.32 38.69 2.56 31.51 2.56"/><path class="cls-2" d="M595.91,358.36a10.33,10.33,0,0,1,2.9,7.78h6l.07-.18q.14-7-4.53-11.17a13.33,13.33,0,0,0-1.33-1.05l-5.41,3A9,9,0,0,1,595.91,358.36Z" transform="translate(-527.79 -348.65)"/><path class="cls-3" d="M595.91,358.36a10.33,10.33,0,0,1,2.9,7.78h6l.07-.18q.14-7-4.53-11.17a13.33,13.33,0,0,0-1.33-1.05l-5.41,3A9,9,0,0,1,595.91,358.36Z" transform="translate(-527.79 -348.65)"/><path d="M579.45,359.74a10,10,0,0,1,8.36-4.19,12.92,12.92,0,0,1,5.84,1.22l5.41-3a19.07,19.07,0,0,0-11.27-3.13,16.45,16.45,0,0,0-12.89,5.58q-4.86,5.44-5,13.84l6.72-3.76A15.35,15.35,0,0,1,579.45,359.74Z" transform="translate(-527.79 -348.65)"/><path class="cls-2" d="M576.65,366.27,569.93,370c0,.13,0,.27,0,.41v8.28q0,8.67,5,14.23a16.39,16.39,0,0,0,12.79,5.56q7.81,0,12.57-4.36a13.83,13.83,0,0,0,4.62-11l-.07-.18h-6q0,5.06-2.88,7.84t-8.1,2.79a10,10,0,0,1-8.38-4.18,17.17,17.17,0,0,1-3.17-10.67v-8.35A22.24,22.24,0,0,1,576.65,366.27Z" transform="translate(-527.79 -348.65)"/><polygon class="cls-4" points="16.09 49.11 22.35 49.11 22.35 32.73 22.57 32.32 16.09 35.94 16.09 49.11"/><path class="cls-5" d="M576.65,366.27,569.93,370c0,.13,0,.27,0,.41v8.28q0,8.67,5,14.23a16.39,16.39,0,0,0,12.79,5.56q7.81,0,12.57-4.36a13.83,13.83,0,0,0,4.62-11l-.07-.18h-6q0,5.06-2.88,7.84t-8.1,2.79a10,10,0,0,1-8.38-4.18,17.17,17.17,0,0,1-3.17-10.67v-8.35A22.24,22.24,0,0,1,576.65,366.27Z" transform="translate(-527.79 -348.65)"/><g class="cls-6"><line class="cls-7" x1="15.15" y1="35.42" x2="20.93" y2="32.11"/></g><g class="cls-8"><line class="cls-7" x1="67.52" y1="5.47" x2="71.17" y2="3.39"/><line class="cls-7" x1="43.92" y1="18.97" x2="65.64" y2="6.55"/></g><text class="cls-9" transform="translate(90.06 42.22)">‘<tspan class="cls-10" x="7.95" y="0">s</tspan></text><text class="cls-11" transform="translate(148.35 42.3)">Portfolio</text></svg>